<svg width="16" height="17" viewBox="0 0 16 17" fill="none" xmlns="http://www.w3.org/2000/svg">
<mask id="mask0_7354_72597" style="mask-type:alpha" maskUnits="userSpaceOnUse" x="0" y="0" width="16" height="17">
<path d="M11 0.5C11.2706 0.5 11.5179 0.652859 11.6389 0.894847L12.961 3.53903L15.6052 4.86112C15.8471 4.98212 16 5.22945 16 5.5C16 5.77055 15.8471 6.01788 15.6052 6.13888L12.961 7.46097L11.6389 10.1052C11.5179 10.3471 11.2706 10.5 11 10.5C10.7294 10.5 10.4821 10.3471 10.3611 10.1052L9.03903 7.46097L6.39485 6.13888C6.15286 6.01788 6 5.77055 6 5.5C6 5.22945 6.15286 4.98212 6.39485 4.86112L9.03903 3.53903L10.3611 0.894847C10.4821 0.652859 10.7294 0.5 11 0.5Z" fill="#FFD700"/>
<path d="M3.5 8.49999C3.76514 8.49999 4.00752 8.64979 4.1261 8.88694L4.95508 10.5449L6.61305 11.3739C6.85019 11.4925 7 11.7348 7 12C7 12.2651 6.85019 12.5075 6.61305 12.6261L4.95508 13.4551L4.1261 15.113C4.00752 15.3502 3.76514 15.5 3.5 15.5C3.23486 15.5 2.99247 15.3502 2.8739 15.113L2.04492 13.4551L0.38695 12.6261C0.149802 12.5075 0 12.2651 0 12C0 11.7348 0.149802 11.4925 0.38695 11.3739L2.04492 10.5449L2.8739 8.88694C2.99247 8.64979 3.23486 8.49999 3.5 8.49999Z" fill="#FFD700"/>
<path d="M14.2453 11.9606C14.1042 11.6783 13.8156 11.5 13.5 11.5C13.1843 11.5 12.8958 11.6783 12.7546 11.9606L12.3233 12.8233L11.4606 13.2546C11.1783 13.3958 11 13.6844 11 14C11 14.3156 11.1783 14.6042 11.4606 14.7454L12.3233 15.1767L12.7546 16.0393C12.8958 16.3217 13.1843 16.5 13.5 16.5C13.8156 16.5 14.1042 16.3217 14.2453 16.0393L14.6767 15.1767L15.5393 14.7454C15.8216 14.6042 16 14.3156 16 14C16 13.6844 15.8216 13.3958 15.5393 13.2546L14.6767 12.8233L14.2453 11.9606Z" fill="#FFD700"/>
</mask>
<g mask="url(#mask0_7354_72597)">
<rect width="16" height="16" transform="translate(0 0.5)" fill="#FFD700"/>
</g>
<mask id="mask1_7354_72597" style="mask-type:alpha" maskUnits="userSpaceOnUse" x="0" y="0" width="16" height="17">
<path fill-rule="evenodd" clip-rule="evenodd" d="M12.5138 4.43346C12.3202 4.33669 12.1633 4.17977 12.0665 3.98624L11 1.85316L9.93346 3.98624C9.83669 4.17977 9.67977 4.33669 9.48624 4.43346L7.35316 5.5L9.48624 6.56654C9.67977 6.6633 9.83669 6.82023 9.93346 7.01375L11 9.14684L12.0665 7.01375C12.1633 6.82023 12.3202 6.6633 12.5138 6.56654L14.6468 5.5L12.5138 4.43346ZM4.50787 11.4393C4.31434 11.3426 4.15742 11.1856 4.06065 10.9921L3.5 9.87081L2.93934 10.9921C2.84258 11.1856 2.68566 11.3426 2.49213 11.4393L1.37082 12L2.49213 12.5606C2.68566 12.6574 2.84258 12.8143 2.93934 13.0079L3.5 14.1292L4.06065 13.0079C4.15742 12.8143 4.31434 12.6574 4.50787 12.5606L5.62917 12L4.50787 11.4393ZM0.834603 11.7319C0.834456 11.7318 0.83431 11.7317 0.834163 11.7317L0.699999 12L0.834164 11.7317L0.834603 11.7319ZM13.2177 13.2705C13.1209 13.464 12.964 13.621 12.7705 13.7177L12.206 14L12.7705 14.2823C12.964 14.379 13.1209 14.5359 13.2177 14.7295L13.5 15.294L13.7822 14.7295C13.879 14.5359 14.0359 14.379 14.2294 14.2823L14.794 14L14.2294 13.7177C14.0359 13.621 13.879 13.464 13.7822 13.2705L13.5 12.706L13.2177 13.2705ZM13.3509 12.4079L13.3511 12.4083L13.3509 12.4079ZM15.0921 13.8509L15.0918 13.8511L15.0921 13.8509ZM13.3509 15.5921C13.351 15.592 13.351 15.5919 13.3511 15.5918L13.3509 15.5921ZM11.9078 13.8509C11.9079 13.851 11.9081 13.851 11.9082 13.8511L11.9078 13.8509ZM12.961 3.53903L15.6052 4.86112C15.8471 4.98212 16 5.22945 16 5.5C16 5.77055 15.8471 6.01788 15.6052 6.13888L12.961 7.46097L11.6389 10.1052C11.5179 10.3471 11.2706 10.5 11 10.5C10.7294 10.5 10.4821 10.3471 10.3611 10.1052L9.03903 7.46097L6.39485 6.13888C6.15286 6.01788 6 5.77055 6 5.5C6 5.22945 6.15286 4.98212 6.39485 4.86112L9.03903 3.53903L10.3611 0.894847C10.4821 0.652859 10.7294 0.5 11 0.5C11.2706 0.5 11.5179 0.652859 11.6389 0.894847L12.961 3.53903ZM2.04492 13.4551L2.8739 15.113C2.99247 15.3502 3.23486 15.5 3.5 15.5C3.76514 15.5 4.00752 15.3502 4.1261 15.113L4.95508 13.4551L6.61305 12.6261C6.85019 12.5075 7 12.2651 7 12C7 11.7348 6.85019 11.4925 6.61305 11.3739L4.95508 10.5449L4.1261 8.88694C4.00752 8.64979 3.76514 8.49999 3.5 8.49999C3.23486 8.49999 2.99247 8.64979 2.8739 8.88694L2.04492 10.5449L0.38695 11.3739C0.149802 11.4925 0 11.7348 0 12C0 12.2651 0.149802 12.5075 0.38695 12.6261L2.04492 13.4551ZM13.5 11.5C13.8156 11.5 14.1042 11.6783 14.2453 11.9606L14.6767 12.8233L15.5393 13.2546C15.8216 13.3958 16 13.6844 16 14C16 14.3156 15.8216 14.6042 15.5393 14.7454L14.6767 15.1767L14.2453 16.0393C14.1042 16.3217 13.8156 16.5 13.5 16.5C13.1843 16.5 12.8958 16.3217 12.7546 16.0393L12.3233 15.1767L11.4606 14.7454C11.1783 14.6042 11 14.3156 11 14C11 13.6844 11.1783 13.3958 11.4606 13.2546L12.3233 12.8233L12.7546 11.9606C12.8958 11.6783 13.1843 11.5 13.5 11.5Z" fill="#B36200"/>
</mask>
<g mask="url(#mask1_7354_72597)">
<rect width="16" height="16" transform="translate(0 0.5)" fill="#B36200"/>
</g>
</svg>
