<svg width="16" height="17" viewBox="0 0 16 17" fill="none" xmlns="http://www.w3.org/2000/svg"><g clip-path="url(#clip0)"><path fill-rule="evenodd" clip-rule="evenodd" d="M8 7.5C9.10457 7.5 10 6.60457 10 5.5C10 4.39543 9.10457 3.5 8 3.5C6.89543 3.5 6 4.39543 6 5.5C6 6.60457 6.89543 7.5 8 7.5ZM8 8.5C9.65685 8.5 11 7.15685 11 5.5C11 3.84315 9.65685 2.5 8 2.5C6.34315 2.5 5 3.84315 5 5.5C5 7.15685 6.34315 8.5 8 8.5ZM3.93792 13.3318C4.07237 13.4673 4.20334 13.5 4.25 13.5H8.29129C8.39704 13.8568 8.52906 14.19 8.68319 14.5H4.25C3.52513 14.5 2.75 13.7911 2.75 12.9167C2.75 11.1678 5 9.75 8 9.75C8.13705 9.75 8.27253 9.75296 8.4063 9.75877C8.21106 9.94307 8.07198 10.1978 8.04227 10.5123C8.03471 10.5923 8.0282 10.6715 8.0227 10.75C8.01514 10.75 8.00757 10.75 8 10.75C6.64589 10.75 5.52237 11.0718 4.77154 11.5307C4.00994 11.9963 3.75 12.5124 3.75 12.9167C3.75 13.0529 3.81163 13.2046 3.93792 13.3318Z" fill="#040413" fill-opacity="0.56"></path><path fill-rule="evenodd" clip-rule="evenodd" d="M9.05951 10.4024C10.6651 10.6202 12.4969 8.50392 12.5 8.5C12.5031 8.50392 14.3349 10.6202 15.9405 10.4024C16.3939 14.2771 14.1582 16.0241 12.5559 16.4845C12.519 16.4952 12.481 16.4952 12.4441 16.4845C10.8418 16.0241 8.60606 14.2771 9.05951 10.4024Z" fill="#0E72ED"></path></g><defs><clipPath id="clip0"><rect width="15.9833" height="16" fill="white" transform="translate(0 0.5)"></rect></clipPath></defs></svg>